# xmcd
#
# Track frame offsets: 
#        150
#        15955
#        30566
#        46793
#        59583
#        75781
#        96240
#        111878
#        135388
#        153837
#        179068
#        195494
#        216889
#        234685
#        252036
#        268656
#        298117
#
# Disc length: 4166 seconds
#
# Revision: 2
# Processed by: cddbd v1.5.2PL0 Copyright (c) Steve Scherf et al.
# Submitted via: ExactAudioCopyFreeDBPlugin 1.0
#
DISCID=e0104411
DTITLE=The Mercy Brothers (featuring Barrence Whitfield) - Strange Adv
DTITLE=enture
DYEAR=2006
DGENRE=Rhythm and Blues
TTITLE0=Another Man Done Gone
TTITLE1=Stay Away from My Door
TTITLE2=Down That Road
TTITLE3=I Believe I´ll Make a Change
TTITLE4=The New Year Blues
TTITLE5=Broke Down Engine
TTITLE6=Working on the Line
TTITLE7=Night Train to Memphis
TTITLE8=Misery Train
TTITLE9=Mr. Johnson
TTITLE10=Long Black Train (live bonus track)
TTITLE11=California Stars (live bonus track)
TTITLE12=The New Year Blues (live bonus track)
TTITLE13=Down That Road (live bonus track)
TTITLE14=Misery Train (live bonus track)
TTITLE15=Pallet on the Floor (live bonus track)
TTITLE16=Tennessee Blues (studio bonus track)
EXTD=
EXTT0=
EXTT1=
EXTT2=
EXTT3=
EXTT4=
EXTT5=
EXTT6=
EXTT7=
EXTT8=
EXTT9=
EXTT10=
EXTT11=
EXTT12=
EXTT13=
EXTT14=
EXTT15=
EXTT16=
PLAYORDER=
